<svg width="455" height="455" viewBox="0 0 455 455" fill="none" xmlns="http://www.w3.org/2000/svg">
<path d="M232.506 79.9934L211.355 250.405H371.186C377.621 166.214 317.017 90.9579 232.506 79.9934Z" fill="white"/>
<path fill-rule="evenodd" clip-rule="evenodd" d="M455 227.5C455 353.145 353.145 455 227.5 455C101.855 455 0 353.145 0 227.5C0 101.855 101.855 0 227.5 0C353.145 0 455 101.855 455 227.5ZM416.829 227.5C416.829 332.063 332.063 416.829 227.5 416.829C122.937 416.829 38.1711 332.063 38.1711 227.5C38.1711 122.937 122.937 38.1711 227.5 38.1711C332.063 38.1711 416.829 122.937 416.829 227.5Z" fill="white"/>
</svg>
